<svg version="1.0" xmlns="http://www.w3.org/2000/svg"
 viewBox="1100 1000 4200 1100"
 preserveAspectRatio="xMidYMid meet">
<g transform="translate(0,3072) scale(0.1,-0.1)"
fill="#ffffff" stroke="none">
<path d="M13130 18556 c314 -49 525 -130 719 -276 147 -111 295 -290 382
-461 45 -90 108 -283 134 -414 47 -233 56 -348 62 -761 l6 -392 -289 -7 c-159
-4 -410 -8 -559 -9 l-270 -1 -6 410 c-5 358 -9 425 -27 525 -56 307 -155 446
-361 511 -88 28 -288 30 -375 5 -237 -69 -360 -225 -418 -528 -22 -112 -22
-121 -26 -1713 -2 -1137 0 -1636 8 -1725 27 -297 104 -496 229 -596 98 -77
258 -119 421 -110 264 14 424 137 489 376 46 167 53 254 60 724 l6 449 547 -1
c301 0 552 -3 557 -7 14 -8 14 -414 1 -710 -16 -383 -84 -704 -195 -926 -91
-181 -291 -411 -448 -518 -173 -116 -392 -202 -617 -241 -159 -28 -533 -38
-732 -21 -472 43 -808 204 -1073 516 -197 231 -322 580 -367 1020 -18 184 -19
3158 0 3350 62 647 262 1042 657 1300 108 71 162 97 297 143 130 46 228 67
413 93 168 23 611 20 775 -5z"/>
<path d="M26291 18555 c146 -25 225 -80 283 -195 47 -96 60
-180 53 -375 -4 -125 -9 -172 -25 -215 -60 -168 -109 -210 -301 -257 -93 -24
-380 -23 -474 0 -238 59 -327 197 -327 507 0 207 44 358 127 430 128 113 387
154 664 105z"/>
<path d="M24262 17608 l3 -593 378 -3 377 -2 0 -404 0 -403 -232 -6 c-128
-4 -299 -7 -380 -7 l-148 0 0 -1302 c0 -1118 2 -1317 15 -1398 43 -270 136
-389 345 -446 81 -22 257 -24 355 -5 483 96 866 477 1215 1206 130 270 171
367 431 1005 204 498 310 714 484 975 187 282 358 454 614 620 279 181 641
264 1098 252 212 -5 282 -14 478 -61 466 -113 826 -386 1141 -866 135 -207
227 -375 440 -805 523 -1058 809 -1518 1172 -1882 210 -212 364 -318 571 -393
319 -117 713 -85 1051 85 327 164 581 424 758 772 31 62 60 113 64 113 12 0
13 -59 7 -340 -11 -445 -56 -674 -184 -931 -112 -224 -355 -437 -617 -540
-174 -68 -390 -107 -643 -116 -566 -18 -947 100 -1391 433 -434 325 -745 769
-1346 1919 -206 394 -275 518 -487 870 -288 480 -591 752 -929 831 -86 20
-327 14 -417 -10 -91 -25 -252 -108 -330 -171 -149 -119 -298 -317 -476 -635
-132 -235 -230 -442 -463 -968 -409 -926 -671 -1363 -1017 -1698 -350 -337
-735 -517 -1208 -564 -222 -22 -538 -8 -716 31 -433 95 -734 318 -901 664 -59
122 -85 205 -116 370 -21 108 -22 134 -25 1547 l-4 1438 -262 2 -262 3 -3 408
-2 407 205 0 206 0 26 28 c42 44 78 137 118 302 55 232 73 369 101 773 l6 87
449 0 449 0 2 -592z"/>
<path d="M17055 17076 c337 -60 563 -167 777 -366 199 -185 325
-413 402 -725 65 -261 78 -485 78 -1364 1 -882 -10 -1067 -84 -1376 -53 -224
-142 -438 -229 -551 -53 -69 -210 -220 -290 -279 -74 -55 -260 -150 -369 -189
-174 -63 -415 -96 -701 -96 -365 0 -592 43 -846 160 -266 123 -494 351 -630
630 -91 187 -157 453 -182 730 -29 316 -22 1805 10 2045 37 288 138 586 263
773 122 184 373 395 579 486 129 57 313 103 517 131 135 18 587 13 705 -9z"/>
<path d="M21313 17085 c507 -67 810 -373 915 -925 48 -247 47 -209 47 -2130 l0 -1815 -535 0
-535 0 -6 1675 c-6 1738 -6 1744 -48 1955 -44 218 -158 338 -363 381 -129 28
-327 1 -428 -59 -98 -57 -178 -165 -228 -309 -69 -194 -66 -113 -72 -1968 l-5
-1675 -535 0 -535 0 -3 2398 -2 2397 454 0 c250 0 457 -4 460 -8 5 -8 76 -415
76 -434 0 -23 33 -2 71 45 217 266 479 416 820 466 40 6 85 13 99 15 63 9 255
4 353 -9z"/>
<path d="M41187 17089 c345 -46 592 -216 722 -497 14 -29 28 -52 32 -52 5 0 23
21 40 48 120 176 254 294 434 382 185 91 356 130 575 130 599 0 963 -322 1054
-933 34 -225 37 -421 34 -2197 l-3 -1755 -507 -3 c-280 -1 -508 1 -508 5 0 5
-2 780 -3 1723 l-3 1715 -22 115 c-39 203 -75 292 -148 370 -63 68 -126 93
-245 98 -292 13 -452 -124 -537 -458 -15 -59 -17 -238 -22 -1815 l-5 -1750
-502 -3 -503 -2 0 1652 c0 1015 -4 1697 -10 1768 -29 334 -103 506 -247 576
-44 22 -73 28 -153 32 -303 14 -480 -155 -536 -514 -15 -99 -17 -269 -20
-1804 -2 -932 -4 -1698 -4 -1702 0 -5 -227 -8 -505 -8 l-505 0 0 1838 c1 1010
0 2089 -2 2397 l-3 560 421 3 422 2 5 -32 c4 -18 18 -123 32 -233 15 -110 30
-203 34 -208 4 -4 29 25 57 65 65 97 211 242 305 304 220 146 553 220 826 183z"/>
<path d="M26577 16478 l-6 -533 -89 -235 c-80 -211 -257 -641 -390 -950 -141 -325 -336
-719 -413 -835 -26 -38 -64 -86 -83 -104 l-36 -35 0 1612 0 1612 512 0 511 0
-6 -532z"/>
<path d="M32320 15360 c3 -905 4 -1647 3 -1649 -6 -10 -53 21 -108 70 -222 203
-531 670 -807 1220 l-118 236 0 887 0 886 513 -2 512 -3 5 -1645z"/>
<path d="M34498 15910 c2 -746 -1 -1122 -8 -1180 -13 -104 -74 -290 -139 -426 -144 -302 -407 -588
-674 -733 -90 -48 -199 -92 -215 -86 -12 4 -13 61 -8 383 5 262 19 2981 16
3135 0 4 231 6 513 5 l512 -3 3 -1095z"/>
<path d="M36250 15300 c5 -1549 8 -1714 23 -1803
31 -179 71 -271 153 -357 100 -105 217 -146 384 -136 274 16 425 140 490 401
44 177 43 168 49 1920 l6 1680 513 3 512 2 -2 -2397 -3 -2398 -413 -3 -412 -2
-8 22 c-5 13 -28 128 -52 256 -24 127 -46 232 -49 232 -3 -1 -27 -31 -53 -68
-161 -228 -356 -385 -569 -457 -211 -72 -540 -82 -769 -24 -175 45 -399 186
-512 323 -193 234 -283 521 -308 982 -11 196 -14 3517 -3 3528 4 3 234 5 512
4 l506 -3 5 -1705z"/>
<path d="M28418 14018 l-3 -1803 -504 -3 c-344 -1 -507 1 -511 8 -4
6 -5 418 -3 917 l3 906 49 121 c68 168 233 550 291 673 106 224 306 560 444
742 77 103 206 241 224 241 9 0 11 -442 10 -1802z"/>
<path d="M29771 14858 c73 -128 200
-363 282 -523 145 -283 171 -332 305 -580 35 -66 80 -149 100 -185 19 -36 63
-117 98 -181 l64 -117 -2 -528 -3 -529 -515 0 -515 0 -3 1120 c-2 616 0 1275
4 1465 l6 344 23 -27 c13 -14 83 -131 156 -259z"/>
<path d="M16475 16231 c-186 -53 -296 -181 -354 -411 -50 -200 -55 -318 -56
-1260 0 -980 1 -1004 72 -1223 78 -245 210 -344 473 -354 188 -8 299 29 405
131 93 92 149 237 181 476 33 248 25 1849 -11 2078 -53 337 -164 500 -384 566
-74 22 -246 20 -326 -3z"/>
</g>
</svg>
